IKResults
version=1
nRows=11
nColumns=40
inDegrees=yes

Units are S.I. units (second, meters, Newtons, ...)
Angles are in degrees.

endheader
time	pelvis_tilt	pelvis_list	pelvis_rotation	pelvis_tx	pelvis_ty	pelvis_tz	hip_flexion_r	hip_adduction_r	hip_rotation_r	knee_angle_r	knee_angle_r_beta	ankle_angle_r	subtalar_angle_r	mtp_angle_r	hip_flexion_l	hip_adduction_l	hip_rotation_l	knee_angle_l	knee_angle_l_beta	ankle_angle_l	subtalar_angle_l	mtp_angle_l	lumbar_extension	lumbar_bending	lumbar_rotation	arm_flex_r	arm_add_r	arm_rot_r	elbow_flex_r	pro_sup_r	wrist_flex_r	wrist_dev_r	arm_flex_l	arm_add_l	arm_rot_l	elbow_flex_l	pro_sup_l	wrist_flex_l	wrist_dev_l
      0.96000000	     14.43633064	     -7.08087831	      5.66808323	      0.04457329	      0.91981998	      1.00693504	      8.10385512	      5.85695076	    -21.34860426	    -21.17246836	     -0.36952928	     -1.77813482	     -1.84420058	     -6.18600463	    -28.95249615	      8.13658480	      2.91111065	    -24.28598412	     -0.42387039	     12.82166463	      9.05790755	     -6.05002382	    -19.00170846	      9.10508685	     -6.75120273	    -10.89086386	     -9.74470334	     -6.16655319	     13.15392741	     89.95437384	      0.00000000	      0.00000000	     15.13919676	      8.82456496	     11.48265603	     48.45454657	     89.95437384	      0.00000000	      0.00000000
      0.97000000	     14.62871853	     -7.31052302	      5.82921381	      0.05639608	      0.92207729	      1.00779020	      7.24485980	      6.38177280	    -20.64682391	    -21.33463479	     -0.37235962	     -1.33600434	     -1.67090010	     -6.07973187	    -28.79436950	      8.48343393	      2.60893280	    -26.07546811	     -0.45510277	     10.63070578	     10.25474449	     -5.65651496	    -19.03651817	      9.38607878	     -6.71005607	    -10.57902237	     -9.75924962	     -5.98456186	     13.06092528	     89.95437384	      0.00000000	      0.00000000	     14.75501389	      8.45254504	     11.70248193	     47.49343650	     89.95437384	      0.00000000	      0.00000000
      0.98000000	     14.89191424	     -7.57806982	      6.00336893	      0.06837577	      0.92492653	      1.00884387	      5.79901841	      7.36137222	    -19.00144783	    -20.37564416	     -0.35562208	     -1.37629291	     -3.24240526	     -4.03370201	    -28.77924361	      8.69409458	      1.72035169	    -27.62779965	     -0.48219607	      8.30308223	     12.81851638	     -3.76536629	    -19.13557563	      9.69403501	     -6.73284972	    -10.30513588	     -9.77083435	     -5.74889253	     13.21239275	     89.95437384	      0.00000000	      0.00000000	     14.21525233	      8.17078043	     11.96929799	     46.57940476	     89.95437384	      0.00000000	      0.00000000
      0.99000000	     15.06866033	     -7.40386110	      5.84426008	      0.07961820	      0.92742967	      1.00995944	      4.94995182	      7.38242910	    -18.50686003	    -20.70304910	     -0.36133637	     -0.92169727	     -3.07064826	     -3.95268052	    -28.33604468	      8.46419049	      1.46304412	    -29.73552174	     -0.51898276	      6.06421530	     12.93231913	     -3.49874435	    -19.33001091	      9.46119128	     -6.40911778	    -10.03888676	     -9.77510369	     -5.53388597	     13.49346734	     89.95437384	      0.00000000	      0.00000000	     13.81438356	      7.92112291	     11.92854168	     45.63697420	     89.95437384	      0.00000000	      0.00000000
      1.00000000	     15.44804404	     -7.36880033	      6.11769410	      0.09155456	      0.93050677	      1.01118883	      3.29266327	      7.79628189	    -18.15175519	    -19.80486806	     -0.34566016	     -0.55064057	     -2.75290306	     -3.70139372	    -28.01789389	      8.70364991	      1.43502779	    -31.57775592	     -0.55113581	      2.45668874	     14.47767703	     -2.88155000	    -19.51779019	      9.40872644	     -6.51161142	     -9.79548081	     -9.63664850	     -5.41358830	     13.80013492	     89.95437384	      0.00000000	      0.00000000	     13.40333779	      7.87579980	     11.75701043	     44.29097516	     89.95437384	      0.00000000	      0.00000000
      1.01000000	     15.62299792	     -7.10950847	      6.17690480	      0.10276128	      0.93310339	      1.01231831	      2.06051538	      7.80771506	    -17.98776000	    -19.33944122	     -0.33753692	     -0.10597315	     -2.51082152	     -3.54107703	    -27.23466118	      8.61171469	      1.39261064	    -33.76937494	     -0.58938678	     -0.37858528	     15.09776716	     -2.43761766	    -19.64540356	      9.07462784	     -6.34085928	     -9.54940037	     -9.51849408	     -5.33453931	     14.25067716	     89.95437384	      0.00000000	      0.00000000	     13.05581929	      7.71816702	     11.62523801	     43.04558949	     89.95437384	      0.00000000	      0.00000000
      1.02000000	     15.77415948	     -6.83136660	      6.25927866	      0.11370021	      0.93552244	      1.01352068	      0.86348979	      7.76490774	    -18.01844862	    -18.86251702	     -0.32921303	      0.24807310	     -2.17564300	     -3.40580978	    -26.30249217	      8.52388928	      1.16002791	    -35.99006981	     -0.62814522	     -3.02367337	     15.58914485	     -2.02844277	    -19.77685845	      8.72235662	     -6.21623494	     -9.35642991	     -9.43363205	     -5.20960349	     14.90047419	     89.95437384	      0.00000000	      0.00000000	     12.71644523	      7.61018489	     11.53389052	     41.72821023	     89.95437384	      0.00000000	      0.00000000
      1.03000000	     16.02983139	     -6.36081847	      6.09380428	      0.12400227	      0.93784585	      1.01475839	     -0.23780900	      7.41914929	    -17.92769841	    -18.82515212	     -0.32856089	      0.60746978	     -2.02057128	     -3.33631051	    -25.41466632	      8.12164247	      1.04083605	    -38.31172404	     -0.66866573	     -4.54583119	     15.46936719	     -1.87095030	    -20.19680892	      8.11562079	     -5.89003882	     -8.98624792	     -9.32760059	     -5.05861098	     15.51371769	     89.95437384	      0.00000000	      0.00000000	     12.32086111	      7.47544816	     11.53845933	     40.79060074	     89.95437384	      0.00000000	      0.00000000
      1.04000000	     16.11425630	     -6.10166991	      6.49541001	      0.13480200	      0.93970522	      1.01550332	     -1.39602494	      7.41359619	    -18.04092006	    -18.27928248	     -0.31903366	      1.29742077	     -1.57026850	     -3.28590433	    -24.13109289	      8.19025571	      0.51464873	    -40.64297590	     -0.70935375	     -6.99399103	     16.09199808	     -1.55804065	    -20.17409834	      7.86678388	     -6.08286394	     -8.76682742	     -9.25435681	     -4.78282203	     16.21750578	     89.95437384	      0.00000000	      0.00000000	     12.03177259	      7.37639317	     11.55527071	     39.17528173	     89.95437384	      0.00000000	      0.00000000
      1.05000000	     16.40510508	     -5.68170308	      6.36443836	      0.14478910	      0.94156174	      1.01681466	     -2.49382663	      7.12838689	    -17.97497298	    -18.27114504	     -0.31889164	      1.65559006	     -1.38704346	     -3.23626232	    -23.17027406	      7.87019174	      0.43646837	    -42.89322729	     -0.74862804	     -7.47630428	     16.15929132	     -1.47381869	    -20.64909481	      7.28878046	     -5.75808222	     -8.34090641	     -9.19229301	     -4.60635593	     16.99107324	     89.95437384	      0.00000000	      0.00000000	     11.61021481	      7.29540026	     11.66999631	     38.24452015	     89.95437384	      0.00000000	      0.00000000
      1.06000000	     16.41761195	     -5.55891923	      6.82528665	      0.15487600	      0.94271938	      1.01733661	     -3.50387113	      7.26913341	    -18.02342548	    -17.72402432	     -0.30934258	      2.41206161	     -0.81952751	     -3.19493904	    -21.67915380	      7.95930247	     -0.27383937	    -45.23941557	     -0.78957675	     -7.35298177	     17.12122962	     -1.21011542	    -20.63176513	      7.20581302	     -5.89191326	     -8.17180184	     -9.21586456	     -4.28814227	     18.14989793	     89.95437384	      0.00000000	      0.00000000	     11.48307223	      7.07100627	     11.96481885	     36.42612287	     89.95437384	      0.00000000	      0.00000000
